#!OML:ASF X:\für Bonn\!DataBase\2005_08_12_Daniel\c3d\Daniel.ASF
:FULLY-SPECIFIED
:DEGREES
67
root -1.13778 17.3737 1.55643 -311.315 -79.1374 284.854
lowerback 41.6148 -14.9501 0.343118
upperback 10.9789 -20.3279 -0.0398335
thorax -6.64264 -10.5732 7.86348
lowerneck -1.83446 9.43714 -3.7714
upperneck 7.9944 12.9675 -5.60181
head 3.03707 6.02029 -0.759965
rclavicle 5.38706e-014 6.20208e-014
rhumerus -58.9219 10.8031 -79.2852
rradius 60.357
rwrist 6.61528
rhand -26.2553 35.9984
rfingers 7.12502
rthumb 0.299176 6.01886
lclavicle 5.38706e-014 6.20208e-014
lhumerus 38.9039 -2.45143 72.8226
lradius 127.366
lwrist 27.8802
lhand -26.5859 -20.1246
lfingers 7.12502
lthumb -0.0201512 9.85515
rfemur -57.0143 -13.2581 25.9324
rtibia 108.891
rfoot 0.792497 7.78131
rtoes -14.3641
lfemur 12.4123 -9.05619 -14.6111
ltibia 29.8334
lfoot -18.0586 -5.74637
ltoes 8.24972
68
root -1.13839 17.3768 1.55341 -309.873 -79.427 283.979
lowerback 40.6787 -14.6856 0.471653
upperback 10.827 -19.9209 0.0662099
thorax -6.58001 -10.3588 7.63933
lowerneck -1.74814 9.29324 -4.05822
upperneck 8.26041 12.769 -5.31935
head 3.06674 5.91061 -0.632367
rclavicle -4.37326e-015 -3.02153e-014
rhumerus -58.1099 11.1474 -79.8908
rradius 61.725
rwrist 6.49221
rhand -26.3446 35.8951
rfingers 7.12502
rthumb 0.21296 5.91543
lclavicle -4.37326e-015 -3.02153e-014
lhumerus 38.5647 -2.15471 72.6627
lradius 127.288
lwrist 27.9021
lhand -26.7136 -19.6881
lfingers 7.12502
lthumb -0.143482 10.2916
rfemur -54.5437 -12.9043 25.3755
rtibia 106.981
rfoot 1.01561 6.89068
rtoes -13.9145
lfemur 11.7596 -9.03715 -14.8139
ltibia 30.0682
lfoot -18.347 -5.44953
ltoes 8.13815
69
root -1.14054 17.3798 1.5493 -308.462 -79.7308 283.133
lowerback 39.7195 -14.4075 0.590658
upperback 10.6917 -19.5055 0.149417
thorax -6.48812 -10.1422 7.38604
lowerneck -1.67931 9.14294 -4.31174
upperneck 8.54733 12.5615 -5.01725
head 3.10921 5.79718 -0.50222
rclavicle -4.17448e-015 8.26944e-014
rhumerus -57.2525 11.5359 -80.5423
rradius 63.0848
rwrist 6.42748
rhand -26.4956 35.6854
rfingers 7.12502
rthumb 0.0670659 5.7057
lclavicle -4.17448e-015 8.26944e-014
lhumerus 38.1104 -1.91219 72.5449
lradius 127.257
lwrist 28.0052
lhand -26.8109 -19.3266
lfingers 7.12502
lthumb -0.237411 10.653
rfemur -52.0482 -12.523 24.8138
rtibia 104.93
rfoot 1.39368 5.90566
rtoes -12.6672
lfemur 11.1239 -9.00162 -15.0334
ltibia 30.2911
lfoot -18.6069 -5.14375
ltoes 8.01662
70
root -1.14371 17.3807 1.54401 -307.088 -80.0273 282.329
lowerback 38.7398 -14.1324 0.726828
upperback 10.5569 -19.0891 0.215289
thorax -6.38873 -9.92381 7.10452
lowerneck -1.55239 8.98728 -4.52585
upperneck 8.83173 12.3402 -4.73985
head 3.14635 5.67779 -0.38896
rclavicle 1.8487e-014 -5.24792e-014
rhumerus -56.3285 11.9588 -81.2094
rradius 64.3284
rwrist 6.41203
rhand -26.776 35.5103
rfingers 7.12502
rthumb -0.203714 5.53063
lclavicle 1.8487e-014 -5.24792e-014
lhumerus 37.5506 -1.74076 72.4633
lradius 127.247
lwrist 28.0785
lhand -26.9231 -18.9804
lfingers 7.12502
lthumb -0.345781 10.999
rfemur -49.5927 -12.1541 24.2845
rtibia 102.765
rfoot 1.74546 4.91413
rtoes -11.9537
lfemur 10.4644 -9.02127 -15.2784
ltibia 30.5393
lfoot -18.9295 -4.8148
ltoes 7.84943
71
root -1.14833 17.3761 1.53625 -305.703 -80.3203 281.492
lowerback 37.7516 -13.8321 0.859289
upperback 10.4402 -18.6472 0.281572
thorax -6.25624 -9.69681 6.81084
lowerneck -1.35392 8.81935 -4.68522
upperneck 9.0841 12.0962 -4.53736
head 3.16998 5.54802 -0.312232
rclavicle 3.77691e-015 3.89618e-014
rhumerus -55.3255 12.3777 -81.8426
rradius 65.4813
rwrist 6.33791
rhand -27.014 35.4015
rfingers 7.12502
rthumb -0.433655 5.42224
lclavicle 3.77691e-015 3.89618e-014
lhumerus 36.952 -1.60634 72.4623
lradius 127.238
lwrist 28.254
lhand -26.9082 -18.7696
lfingers 7.12502
lthumb -0.331455 11.2099
rfemur -47.1226 -11.7586 23.7833
rtibia 100.483
rfoot 2.10754 3.90502
rtoes -11.526
lfemur 9.79085 -9.05128 -15.5242
ltibia 30.8717
lfoot -19.3042 -4.47318
ltoes 7.5981
72
root -1.15397 17.3693 1.5272 -304.29 -80.6088 280.64
lowerback 36.7457 -13.5357 1.01738
upperback 10.3078 -18.2009 0.326612
thorax -6.13701 -9.46336 6.48462
lowerneck -1.11693 8.63882 -4.80732
upperneck 9.37429 11.8301 -4.3327
head 3.20296 5.40666 -0.241718
rclavicle 9.86966e-014 1.63003e-014
rhumerus -54.3387 12.8499 -82.4856
rradius 66.5796
rwrist 6.22651
rhand -27.3162 35.3317
rfingers 7.12502
rthumb -0.725483 5.35319
lclavicle 9.86966e-014 1.63003e-014
lhumerus 36.2647 -1.53038 72.4838
lradius 127.24
lwrist 28.4945
lhand -26.8218 -18.5867
lfingers 7.12502
lthumb -0.247962 11.3929
rfemur -44.6777 -11.3495 23.3174
rtibia 98.0859
rfoot 2.47342 2.84879
rtoes -11.1536
lfemur 9.05588 -9.08351 -15.7597
ltibia 31.2894
lfoot -19.7075 -4.17757
ltoes 7.45565
73
root -1.16044 17.3571 1.51695 -302.845 -80.8846 279.729
lowerback 35.7672 -13.2126 1.19439
upperback 10.1721 -17.7153 0.388301
thorax -6.01999 -9.21136 6.15872
lowerneck -0.769908 8.43985 -4.859
upperneck 9.59286 11.5288 -4.20299
head 3.20165 5.25203 -0.213232
rclavicle 3.45885e-014 -9.02482e-014
rhumerus -53.3299 13.3246 -83.0427
rradius 67.6155
rwrist 5.97438
rhand -27.5579 35.4314
rfingers 7.12502
rthumb -0.958935 5.45382
lclavicle 3.45885e-014 -9.02482e-014
lhumerus 35.5118 -1.55266 72.5855
lradius 127.278
lwrist 28.7999
lhand -26.687 -18.3811
lfingers 7.12502
lthumb -0.117818 11.5986
rfemur -42.2408 -10.936 22.879
rtibia 95.5911
rfoot 2.51796 1.91518
rtoes -10.9262
lfemur 8.31337 -9.13527 -15.995
ltibia 31.7761
lfoot -20.1421 -3.84259
ltoes 7.2484
74
root -1.1675 17.3416 1.50522 -301.402 -81.1877 278.827
lowerback 34.7233 -12.8734 1.33499
upperback 10.0879 -17.2217 0.427686
thorax -5.94093 -8.95052 5.84881
lowerneck -0.33942 8.23574 -4.88629
upperneck 9.83289 11.2142 -4.13208
head 3.19867 5.08775 -0.210212
rclavicle 6.19214e-014 -3.18055e-014
rhumerus -52.3194 13.8533 -83.571
rradius 68.6303
rwrist 5.5952
rhand -27.7369 35.6081
rfingers 7.12502
rthumb -1.13182 5.63141
lclavicle 6.19214e-014 -3.18055e-014
lhumerus 34.6784 -1.61642 72.7306
lradius 127.296
lwrist 29.0538
lhand -26.4586 -18.1838
lfingers 7.12502
lthumb 0.102781 11.796
rfemur -39.859 -10.4949 22.4343
rtibia 93.0144
rfoot 2.37795 1.0134
rtoes -11.14
lfemur 7.5518 -9.218 -16.2731
ltibia 32.2955
lfoot -20.6323 -3.52339
ltoes 7.14433
75
root -1.17386 17.3284 1.49191 -299.776 -81.4757 277.718
lowerback 33.8187 -12.5231 1.50835
upperback 9.88433 -16.6974 0.484935
thorax -5.90576 -8.6711 5.53309
lowerneck 0.163023 8.02522 -4.92274
upperneck 10.0554 10.8804 -4.03023
head 3.17419 4.91621 -0.199363
rclavicle -3.926e-014 6.36111e-015
rhumerus -51.3751 14.4001 -84.0755
rradius 69.6731
rwrist 5.16004
rhand -27.8569 35.8491
rfingers 7.12502
rthumb -1.24772 5.87299
lclavicle -3.926e-014 6.36111e-015
lhumerus 33.7681 -1.71404 72.8508
lradius 127.285
lwrist 29.3602
lhand -26.1483 -18.0269
lfingers 7.12502
lthumb 0.402546 11.9525
rfemur -37.4845 -10.0021 22.0463
rtibia 90.3267
rfoot 2.35264 0.0577579
rtoes -10.9301
lfemur 6.81954 -9.30332 -16.5303
ltibia 32.8013
lfoot -21.1361 -3.15145
ltoes 6.93021
76
root -1.1806 17.3151 1.47645 -297.93 -81.7499 276.384
lowerback 32.9372 -12.146 1.68786
upperback 9.66531 -16.1365 0.562188
thorax -5.88162 -8.37425 5.22958
lowerneck 0.736766 7.8057 -4.94964
upperneck 10.2298 10.5285 -3.98197
head 3.12478 4.73639 -0.210355
rclavicle 1.46206e-013 -4.77083e-014
rhumerus -50.5177 15.0115 -84.5359
rradius 70.7682
rwrist 4.65921
rhand -27.9079 36.1597
rfingers 7.12502
rthumb -1.29698 6.18385
lclavicle 1.46206e-013 -4.77083e-014
lhumerus 32.8188 -1.83919 72.9133
lradius 127.197
lwrist 29.6137
lhand -25.9281 -17.8507
lfingers 7.12502
lthumb 0.615154 12.1281
rfemur -35.1355 -9.47373 21.7102
rtibia 87.5524
rfoot 2.33037 -0.915156
rtoes -10.2442
lfemur 6.1079 -9.36466 -16.7488
ltibia 33.2767
lfoot -21.6222 -2.82035
ltoes 6.70863
77
root -1.18697 17.3061 1.46097 -296.168 -82.0616 275.146
lowerback 31.7362 -11.7395 1.8115
upperback 9.84876 -15.5651 0.423092
thorax -5.8848 -8.05866 5.02417
lowerneck 1.34127 7.57676 -4.93899
upperneck 10.3885 10.1578 -3.89664
head 3.06464 4.55135 -0.216041
rclavicle -9.23355e-014 8.0309e-014
rhumerus -49.6832 15.5891 -85.0022
rradius 71.918
rwrist 4.13914
rhand -27.9029 36.428
rfingers 7.12502
rthumb -1.29216 6.45214
lclavicle -9.23355e-014 8.0309e-014
lhumerus 31.8606 -1.98061 72.8613
lradius 127.044
lwrist 29.9505
lhand -25.6793 -17.6802
lfingers 7.12502
lthumb 0.855494 12.2979
rfemur -32.8793 -8.9224 21.3328
rtibia 84.6725
rfoot 2.40648 -1.88215
rtoes -9.22791
lfemur 5.40182 -9.48124 -17.0403
ltibia 33.7176
lfoot -22.1105 -2.43255
ltoes 6.42993
